
<group>
lokey=12
hikey=22
seq_length=2
pitch_keycenter=21
hicc107=13

<region>
sample=..\Samples\arco\a0_vl1_down.wav
hivel=25
amp_velcurve_25=1

<region>
sample=..\Samples\arco\a0_vl1_up.wav
hivel=25
seq_position=2
amp_velcurve_25=1

<region>
sample=..\Samples\arco\a0_vl2_down.wav
lovel=26
hivel=50
amp_velcurve_50=1

<region>
sample=..\Samples\arco\a0_vl2_up.wav
lovel=26
hivel=50
seq_position=2
amp_velcurve_50=1

<region>
sample=..\Samples\arco\a0_vl3_down.wav
lovel=51
hivel=75
amp_velcurve_75=1

<region>
sample=..\Samples\arco\a0_vl3_up.wav
lovel=51
hivel=75
seq_position=2
amp_velcurve_75=1

<region>
sample=..\Samples\arco\a0_vl4_down.wav
lovel=76
hivel=100
amp_velcurve_100=1

<region>
sample=..\Samples\arco\a0_vl4_up.wav
lovel=76
hivel=100
seq_position=2
amp_velcurve_100=1

<region>
sample=..\Samples\arco\a0_vl5_down.wav
lovel=101

<region>
sample=..\Samples\arco\a0_vl5_up.wav
lovel=101
seq_position=2

//========================
<group>
lokey=23
hikey=25
seq_length=2
pitch_keycenter=24
hicc107=13

<region>
sample=..\Samples\arco\c1_vl1_down.wav
hivel=25
amp_velcurve_25=1

<region>
sample=..\Samples\arco\c1_vl1_up.wav
hivel=25
seq_position=2
amp_velcurve_25=1

<region>
sample=..\Samples\arco\c1_vl2_down.wav
lovel=26
hivel=50
amp_velcurve_50=1

<region>
sample=..\Samples\arco\c1_vl2_up.wav
lovel=26
hivel=50
seq_position=2
amp_velcurve_50=1

<region>
sample=..\Samples\arco\c1_vl3_down.wav
lovel=51
hivel=75
amp_velcurve_75=1

<region>
sample=..\Samples\arco\c1_vl3_up.wav
lovel=51
hivel=75
seq_position=2
amp_velcurve_75=1

<region>
sample=..\Samples\arco\c1_vl4_down.wav
lovel=76
hivel=100
amp_velcurve_100=1

<region>
sample=..\Samples\arco\c1_vl4_up.wav
lovel=76
hivel=100
seq_position=2
amp_velcurve_100=1

<region>
sample=..\Samples\arco\c1_vl5_down.wav
lovel=101

<region>
sample=..\Samples\arco\c1_vl5_up.wav
lovel=101
seq_position=2

//========================
<group>
lokey=26
hikey=28
seq_length=2
pitch_keycenter=27
hicc107=13

<region>
sample=..\Samples\arco\eb1_vl1_down.wav
hivel=25
amp_velcurve_25=1

<region>
sample=..\Samples\arco\eb1_vl1_up.wav
hivel=25
seq_position=2
amp_velcurve_25=1

<region>
sample=..\Samples\arco\eb1_vl2_down.wav
lovel=26
hivel=50
amp_velcurve_50=1

<region>
sample=..\Samples\arco\eb1_vl2_up.wav
lovel=26
hivel=50
seq_position=2
amp_velcurve_50=1

<region>
sample=..\Samples\arco\eb1_vl3_down.wav
lovel=51
hivel=75
amp_velcurve_75=1

<region>
sample=..\Samples\arco\eb1_vl3_up.wav
lovel=51
hivel=75
seq_position=2
amp_velcurve_75=1

<region>
sample=..\Samples\arco\eb1_vl4_down.wav
lovel=76
hivel=100
amp_velcurve_100=1

<region>
sample=..\Samples\arco\eb1_vl4_up.wav
lovel=76
hivel=100
seq_position=2
amp_velcurve_100=1

<region>
sample=..\Samples\arco\eb1_vl5_down.wav
lovel=101

<region>
sample=..\Samples\arco\eb1_vl5_up.wav
lovel=101
seq_position=2

//========================
<group>
lokey=29
hikey=31
seq_length=2
pitch_keycenter=30
hicc107=13

<region>
sample=..\Samples\arco\gb1_vl1_down.wav
hivel=25
amp_velcurve_25=1

<region>
sample=..\Samples\arco\gb1_vl1_up.wav
hivel=25
seq_position=2
amp_velcurve_25=1

<region>
sample=..\Samples\arco\gb1_vl2_down.wav
lovel=26
hivel=50
amp_velcurve_50=1

<region>
sample=..\Samples\arco\gb1_vl2_up.wav
lovel=26
hivel=50
seq_position=2
amp_velcurve_50=1

<region>
sample=..\Samples\arco\gb1_vl3_down.wav
lovel=51
hivel=75
amp_velcurve_75=1

<region>
sample=..\Samples\arco\gb1_vl3_up.wav
lovel=51
hivel=75
seq_position=2
amp_velcurve_75=1

<region>
sample=..\Samples\arco\gb1_vl4_down.wav
lovel=76
hivel=100
amp_velcurve_100=1

<region>
sample=..\Samples\arco\gb1_vl4_up.wav
lovel=76
hivel=100
seq_position=2
amp_velcurve_100=1

<region>
sample=..\Samples\arco\gb1_vl5_down.wav
lovel=101

<region>
sample=..\Samples\arco\gb1_vl5_up.wav
lovel=101
seq_position=2

//========================
<group>
lokey=32
hikey=34
seq_length=2
pitch_keycenter=33
hicc107=13

<region>
sample=..\Samples\arco\a1_vl1_down.wav
hivel=25
amp_velcurve_25=1

<region>
sample=..\Samples\arco\a1_vl1_up.wav
hivel=25
seq_position=2
amp_velcurve_25=1

<region>
sample=..\Samples\arco\a1_vl2_down.wav
lovel=26
hivel=50
amp_velcurve_50=1

<region>
sample=..\Samples\arco\a1_vl2_up.wav
lovel=26
hivel=50
seq_position=2
amp_velcurve_50=1

<region>
sample=..\Samples\arco\a1_vl3_down.wav
lovel=51
hivel=75
amp_velcurve_75=1

<region>
sample=..\Samples\arco\a1_vl3_up.wav
lovel=51
hivel=75
seq_position=2
amp_velcurve_75=1

<region>
sample=..\Samples\arco\a1_vl4_down.wav
lovel=76
hivel=100
amp_velcurve_100=1

<region>
sample=..\Samples\arco\a1_vl4_up.wav
lovel=76
hivel=100
seq_position=2
amp_velcurve_100=1

<region>
sample=..\Samples\arco\a1_vl5_down.wav
lovel=101

<region>
sample=..\Samples\arco\a1_vl5_up.wav
lovel=101
seq_position=2

//========================
<group>
lokey=35
hikey=37
seq_length=2
pitch_keycenter=36
hicc107=13

<region>
sample=..\Samples\arco\c2_vl1_down.wav
hivel=25
amp_velcurve_25=1

<region>
sample=..\Samples\arco\c2_vl1_up.wav
hivel=25
seq_position=2
amp_velcurve_25=1

<region>
sample=..\Samples\arco\c2_vl2_down.wav
lovel=26
hivel=50
amp_velcurve_50=1

<region>
sample=..\Samples\arco\c2_vl2_up.wav
lovel=26
hivel=50
seq_position=2
amp_velcurve_50=1

<region>
sample=..\Samples\arco\c2_vl3_down.wav
lovel=51
hivel=75
amp_velcurve_75=1

<region>
sample=..\Samples\arco\c2_vl3_up.wav
lovel=51
hivel=75
seq_position=2
amp_velcurve_75=1

<region>
sample=..\Samples\arco\c2_vl4_down.wav
lovel=76
hivel=100
amp_velcurve_100=1

<region>
sample=..\Samples\arco\c2_vl4_up.wav
lovel=76
hivel=100
seq_position=2
amp_velcurve_100=1

<region>
sample=..\Samples\arco\c2_vl5_down.wav
lovel=101

<region>
sample=..\Samples\arco\c2_vl5_up.wav
lovel=101
seq_position=2

//========================
<group>
lokey=38
hikey=40
seq_length=2
pitch_keycenter=39
hicc107=13

<region>
sample=..\Samples\arco\eb2_vl1_down.wav
hivel=25
amp_velcurve_25=1

<region>
sample=..\Samples\arco\eb2_vl1_up.wav
hivel=25
seq_position=2
amp_velcurve_25=1

<region>
sample=..\Samples\arco\eb2_vl2_down.wav
lovel=26
hivel=50
amp_velcurve_50=1

<region>
sample=..\Samples\arco\eb2_vl2_up.wav
lovel=26
hivel=50
seq_position=2
amp_velcurve_50=1

<region>
sample=..\Samples\arco\eb2_vl3_down.wav
lovel=51
hivel=75
amp_velcurve_75=1

<region>
sample=..\Samples\arco\eb2_vl3_up.wav
lovel=51
hivel=75
seq_position=2
amp_velcurve_75=1

<region>
sample=..\Samples\arco\eb2_vl4_down.wav
lovel=76
hivel=100
amp_velcurve_100=1

<region>
sample=..\Samples\arco\eb2_vl4_up.wav
lovel=76
hivel=100
seq_position=2
amp_velcurve_100=1

<region>
sample=..\Samples\arco\eb2_vl5_down.wav
lovel=101

<region>
sample=..\Samples\arco\eb2_vl5_up.wav
lovel=101
seq_position=2

//========================
<group>
lokey=41
hikey=43
seq_length=2
pitch_keycenter=42
hicc107=13

<region>
sample=..\Samples\arco\gb2_vl1_down.wav
hivel=25
amp_velcurve_25=1

<region>
sample=..\Samples\arco\gb2_vl1_up.wav
hivel=25
seq_position=2
amp_velcurve_25=1

<region>
sample=..\Samples\arco\gb2_vl2_down.wav
lovel=26
hivel=50
amp_velcurve_50=1

<region>
sample=..\Samples\arco\gb2_vl2_up.wav
lovel=26
hivel=50
seq_position=2
amp_velcurve_50=1

<region>
sample=..\Samples\arco\gb2_vl3_down.wav
lovel=51
hivel=75
amp_velcurve_75=1

<region>
sample=..\Samples\arco\gb2_vl3_up.wav
lovel=51
hivel=75
seq_position=2
amp_velcurve_75=1

<region>
sample=..\Samples\arco\gb2_vl4_down.wav
lovel=76
hivel=100
amp_velcurve_100=1

<region>
sample=..\Samples\arco\gb2_vl4_up.wav
lovel=76
hivel=100
seq_position=2
amp_velcurve_100=1

<region>
sample=..\Samples\arco\gb2_vl5_down.wav
lovel=101

<region>
sample=..\Samples\arco\gb2_vl5_up.wav
lovel=101
seq_position=2

//========================
<group>
lokey=44
hikey=46
seq_length=2
pitch_keycenter=45
hicc107=13

<region>
sample=..\Samples\arco\a2_vl1_down.wav
hivel=25
amp_velcurve_25=1

<region>
sample=..\Samples\arco\a2_vl1_up.wav
hivel=25
seq_position=2
amp_velcurve_25=1

<region>
sample=..\Samples\arco\a2_vl2_down.wav
lovel=26
hivel=50
amp_velcurve_50=1

<region>
sample=..\Samples\arco\a2_vl2_up.wav
lovel=26
hivel=50
seq_position=2
amp_velcurve_50=1

<region>
sample=..\Samples\arco\a2_vl3_down.wav
lovel=51
hivel=75
amp_velcurve_75=1

<region>
sample=..\Samples\arco\a2_vl3_up.wav
lovel=51
hivel=75
seq_position=2
amp_velcurve_75=1

<region>
sample=..\Samples\arco\a2_vl4_down.wav
lovel=76
hivel=100
amp_velcurve_100=1

<region>
sample=..\Samples\arco\a2_vl4_up.wav
lovel=76
hivel=100
seq_position=2
amp_velcurve_100=1

<region>
sample=..\Samples\arco\a2_vl5_down.wav
lovel=101

<region>
sample=..\Samples\arco\a2_vl5_up.wav
lovel=101
seq_position=2

//========================
<group>
lokey=47
hikey=49
seq_length=2
pitch_keycenter=48
hicc107=13

<region>
sample=..\Samples\arco\c3_vl1_down.wav
hivel=25
amp_velcurve_25=1

<region>
sample=..\Samples\arco\c3_vl1_up.wav
hivel=25
seq_position=2
amp_velcurve_25=1

<region>
sample=..\Samples\arco\c3_vl2_down.wav
lovel=26
hivel=50
amp_velcurve_50=1

<region>
sample=..\Samples\arco\c3_vl2_up.wav
lovel=26
hivel=50
seq_position=2
amp_velcurve_50=1

<region>
sample=..\Samples\arco\c3_vl3_down.wav
lovel=51
hivel=75
amp_velcurve_75=1

<region>
sample=..\Samples\arco\c3_vl3_up.wav
lovel=51
hivel=75
seq_position=2
amp_velcurve_75=1

<region>
sample=..\Samples\arco\c3_vl4_down.wav
lovel=76
hivel=100
amp_velcurve_100=1

<region>
sample=..\Samples\arco\c3_vl4_up.wav
lovel=76
hivel=100
seq_position=2
amp_velcurve_100=1

<region>
sample=..\Samples\arco\c3_vl5_down.wav
lovel=101

<region>
sample=..\Samples\arco\c3_vl5_up.wav
lovel=101
seq_position=2

//========================
<group>
lokey=50
hikey=52
seq_length=2
pitch_keycenter=51
hicc107=13

<region>
sample=..\Samples\arco\eb3_vl1_down.wav
hivel=25
amp_velcurve_25=1

<region>
sample=..\Samples\arco\eb3_vl1_up.wav
hivel=25
seq_position=2
amp_velcurve_25=1

<region>
sample=..\Samples\arco\eb3_vl2_down.wav
lovel=26
hivel=50
amp_velcurve_50=1

<region>
sample=..\Samples\arco\eb3_vl2_up.wav
lovel=26
hivel=50
seq_position=2
amp_velcurve_50=1

<region>
sample=..\Samples\arco\eb3_vl3_down.wav
lovel=51
hivel=75
amp_velcurve_75=1

<region>
sample=..\Samples\arco\eb3_vl3_up.wav
lovel=51
hivel=75
seq_position=2
amp_velcurve_75=1

<region>
sample=..\Samples\arco\eb3_vl4_down.wav
lovel=76
hivel=100
amp_velcurve_100=1

<region>
sample=..\Samples\arco\eb3_vl4_up.wav
lovel=76
hivel=100
seq_position=2
amp_velcurve_100=1

<region>
sample=..\Samples\arco\eb3_vl5_down.wav
lovel=101

<region>
sample=..\Samples\arco\eb3_vl5_up.wav
lovel=101
seq_position=2

//========================
<group>
lokey=53
hikey=55
seq_length=2
pitch_keycenter=54
hicc107=13

<region>
sample=..\Samples\arco\gb3_vl1_down.wav
hivel=25
amp_velcurve_25=1

<region>
sample=..\Samples\arco\gb3_vl1_up.wav
hivel=25
seq_position=2
amp_velcurve_25=1

<region>
sample=..\Samples\arco\gb3_vl2_down.wav
lovel=26
hivel=50
amp_velcurve_50=1

<region>
sample=..\Samples\arco\gb3_vl2_up.wav
lovel=26
hivel=50
seq_position=2
amp_velcurve_50=1

<region>
sample=..\Samples\arco\gb3_vl3_down.wav
lovel=51
hivel=75
amp_velcurve_75=1

<region>
sample=..\Samples\arco\gb3_vl3_up.wav
lovel=51
hivel=75
seq_position=2
amp_velcurve_75=1

<region>
sample=..\Samples\arco\gb3_vl4_down.wav
lovel=76
hivel=100
amp_velcurve_100=1

<region>
sample=..\Samples\arco\gb3_vl4_up.wav
lovel=76
hivel=100
seq_position=2
amp_velcurve_100=1

<region>
sample=..\Samples\arco\gb3_vl5_down.wav
lovel=101

<region>
sample=..\Samples\arco\gb3_vl5_up.wav
lovel=101
seq_position=2

//========================
<group>
lokey=56
hikey=58
seq_length=2
pitch_keycenter=57
hicc107=13

<region>
sample=..\Samples\arco\a3_vl1_down.wav
hivel=25
amp_velcurve_25=1

<region>
sample=..\Samples\arco\a3_vl1_up.wav
hivel=25
seq_position=2
amp_velcurve_25=1

<region>
sample=..\Samples\arco\a3_vl2_down.wav
lovel=26
hivel=50
amp_velcurve_50=1

<region>
sample=..\Samples\arco\a3_vl2_up.wav
lovel=26
hivel=50
seq_position=2
amp_velcurve_50=1

<region>
sample=..\Samples\arco\a3_vl3_down.wav
lovel=51
hivel=75
amp_velcurve_75=1

<region>
sample=..\Samples\arco\a3_vl3_up.wav
lovel=51
hivel=75
seq_position=2
amp_velcurve_75=1

<region>
sample=..\Samples\arco\a3_vl4_down.wav
lovel=76
hivel=100
amp_velcurve_100=1

<region>
sample=..\Samples\arco\a3_vl4_up.wav
lovel=76
hivel=100
seq_position=2
amp_velcurve_100=1

<region>
sample=..\Samples\arco\a3_vl5_down.wav
lovel=101

<region>
sample=..\Samples\arco\a3_vl5_up.wav
lovel=101
seq_position=2

//========================
<group>
lokey=59
hikey=61
seq_length=2
hicc107=13

<region>
sample=..\Samples\arco\c4_vl1_down.wav
hivel=25
amp_velcurve_25=1

<region>
sample=..\Samples\arco\c4_vl1_up.wav
hivel=25
seq_position=2
amp_velcurve_25=1

<region>
sample=..\Samples\arco\c4_vl2_down.wav
lovel=26
hivel=50
amp_velcurve_50=1

<region>
sample=..\Samples\arco\c4_vl2_up.wav
lovel=26
hivel=50
seq_position=2
amp_velcurve_50=1

<region>
sample=..\Samples\arco\c4_vl3_down.wav
lovel=51
hivel=75
amp_velcurve_75=1

<region>
sample=..\Samples\arco\c4_vl3_up.wav
lovel=51
hivel=75
seq_position=2
amp_velcurve_75=1

<region>
sample=..\Samples\arco\c4_vl4_down.wav
lovel=76
hivel=100
amp_velcurve_100=1

<region>
sample=..\Samples\arco\c4_vl4_up.wav
lovel=76
hivel=100
seq_position=2
amp_velcurve_100=1

<region>
sample=..\Samples\arco\c4_vl5_down.wav
lovel=101

<region>
sample=..\Samples\arco\c4_vl5_up.wav
lovel=101
seq_position=2

//========================
<group>
lokey=62
hikey=64
seq_length=2
pitch_keycenter=63
hicc107=13

<region>
sample=..\Samples\arco\eb4_vl1_down.wav
hivel=25
amp_velcurve_25=1

<region>
sample=..\Samples\arco\eb4_vl1_up.wav
hivel=25
seq_position=2
amp_velcurve_25=1

<region>
sample=..\Samples\arco\eb4_vl2_down.wav
lovel=26
hivel=50
amp_velcurve_50=1

<region>
sample=..\Samples\arco\eb4_vl2_up.wav
lovel=26
hivel=50
seq_position=2
amp_velcurve_50=1

<region>
sample=..\Samples\arco\eb4_vl3_down.wav
lovel=51
hivel=75
amp_velcurve_75=1

<region>
sample=..\Samples\arco\eb4_vl3_up.wav
lovel=51
hivel=75
seq_position=2
amp_velcurve_75=1

<region>
sample=..\Samples\arco\eb4_vl4_down.wav
lovel=76
hivel=100
amp_velcurve_100=1

<region>
sample=..\Samples\arco\eb4_vl4_up.wav
lovel=76
hivel=100
seq_position=2
amp_velcurve_100=1

<region>
sample=..\Samples\arco\eb4_vl5_down.wav
lovel=101

<region>
sample=..\Samples\arco\eb4_vl5_up.wav
lovel=101
seq_position=2

//========================
<group>
lokey=65
hikey=67
seq_length=2
pitch_keycenter=66
hicc107=13

<region>
sample=..\Samples\arco\gb4_vl1_down.wav
hivel=25
amp_velcurve_25=1

<region>
sample=..\Samples\arco\gb4_vl1_up.wav
hivel=25
seq_position=2
amp_velcurve_25=1

<region>
sample=..\Samples\arco\gb4_vl2_down.wav
lovel=26
hivel=50
amp_velcurve_50=1

<region>
sample=..\Samples\arco\gb4_vl2_up.wav
lovel=26
hivel=50
seq_position=2
amp_velcurve_50=1

<region>
sample=..\Samples\arco\gb4_vl3_down.wav
lovel=51
hivel=75
amp_velcurve_75=1

<region>
sample=..\Samples\arco\gb4_vl3_up.wav
lovel=51
hivel=75
seq_position=2
amp_velcurve_75=1

<region>
sample=..\Samples\arco\gb4_vl4_down.wav
lovel=76
hivel=100
amp_velcurve_100=1

<region>
sample=..\Samples\arco\gb4_vl4_up.wav
lovel=76
hivel=100
seq_position=2
amp_velcurve_100=1

<region>
sample=..\Samples\arco\gb4_vl5_down.wav
lovel=101

<region>
sample=..\Samples\arco\gb4_vl5_up.wav
lovel=101
seq_position=2

//========================
<group>
lokey=68
hikey=72
seq_length=2
pitch_keycenter=69
hicc107=13

<region>
sample=..\Samples\arco\a4_vl1_down.wav
hivel=25
amp_velcurve_25=1

<region>
sample=..\Samples\arco\a4_vl1_up.wav
hivel=25
seq_position=2
amp_velcurve_25=1

<region>
sample=..\Samples\arco\a4_vl2_down.wav
lovel=26
hivel=50
amp_velcurve_50=1

<region>
sample=..\Samples\arco\a4_vl2_up.wav
lovel=26
hivel=50
seq_position=2
amp_velcurve_50=1

<region>
sample=..\Samples\arco\a4_vl3_down.wav
lovel=51
hivel=75
amp_velcurve_75=1

<region>
sample=..\Samples\arco\a4_vl3_up.wav
lovel=51
hivel=75
seq_position=2
amp_velcurve_75=1

<region>
sample=..\Samples\arco\a4_vl4_down.wav
lovel=76
hivel=100
amp_velcurve_100=1

<region>
sample=..\Samples\arco\a4_vl4_up.wav
lovel=76
hivel=100
seq_position=2
amp_velcurve_100=1

<region>
sample=..\Samples\arco\a4_vl5_down.wav
lovel=101

<region>
sample=..\Samples\arco\a4_vl5_up.wav
lovel=101
seq_position=2
